<?xml version="1.0" standalone="no"?>
<!DOCTYPE svg PUBLIC "-//W3C//DTD SVG 20010904//EN"
 "http://www.w3.org/TR/2001/REC-SVG-20010904/DTD/svg10.dtd">
<svg version="1.0" xmlns="http://www.w3.org/2000/svg"
 width="520.000000pt" height="81.000000pt" viewBox="0 0 520.000000 81.000000"
 preserveAspectRatio="xMidYMid meet">

<g transform="translate(0.000000,81.000000) scale(0.100000,-0.100000)"
fill="#000000" stroke="none">
<path d="M3668 797 c-91 -26 -166 -97 -196 -186 -8 -21 -12 -104 -12 -215 0
-169 2 -184 24 -231 27 -59 90 -119 154 -147 58 -26 167 -21 228 10 34 17 114
92 114 107 0 2 -9 9 -21 16 -18 9 -26 6 -58 -24 -66 -64 -130 -83 -213 -66
-42 9 -62 22 -104 64 -67 67 -78 113 -72 309 6 195 32 249 141 296 88 38 186
16 254 -57 27 -30 34 -33 52 -24 27 15 27 20 -9 63 -61 74 -186 111 -282 85z"/>
<path d="M125 786 c-44 -20 -83 -60 -105 -108 -18 -40 -20 -68 -20 -355 l0
-313 30 0 30 0 0 318 c0 359 1 361 79 402 73 37 153 17 198 -50 23 -32 23 -38
23 -351 l0 -319 29 0 30 0 3 318 3 319 29 37 c30 41 78 66 123 66 46 0 107
-37 131 -79 21 -38 22 -49 22 -350 l0 -311 30 0 30 0 0 303 c0 166 -4 317 -10
336 -26 91 -93 143 -191 149 -76 5 -129 -16 -172 -68 -26 -30 -26 -30 -37 -10
-6 12 -32 35 -58 51 -38 24 -56 29 -106 29 -34 -1 -74 -7 -91 -14z"/>
<path d="M900 405 l0 -395 25 0 25 0 0 395 0 395 -25 0 -25 0 0 -395z"/>
<path d="M1207 788 c-20 -6 -58 -29 -83 -52 -85 -77 -92 -198 -17 -286 47 -55
82 -69 194 -77 103 -7 140 -25 170 -83 35 -65 16 -149 -45 -195 -24 -17 -47
-21 -179 -25 l-152 -5 -3 -28 -3 -28 159 3 c160 3 160 3 204 33 122 86 123
263 1 348 -36 26 -53 30 -142 36 -108 8 -133 19 -175 75 -15 20 -21 43 -21 81
0 58 18 91 69 129 24 19 44 21 177 24 l149 3 0 30 0 29 -132 -1 c-73 -1 -150
-6 -171 -11z"/>
<path d="M1640 405 l0 -395 30 0 30 0 0 180 0 180 88 0 c128 0 199 14 241 48
109 87 111 243 5 330 -50 42 -101 52 -258 52 l-136 0 0 -395z m346 309 c51
-38 69 -71 69 -129 0 -58 -18 -91 -69 -129 -24 -18 -45 -21 -157 -24 l-129 -4
0 157 0 157 129 -4 c112 -3 133 -6 157 -24z"/>
<path d="M2190 405 l0 -395 250 0 250 0 0 30 0 30 -220 0 -220 0 0 365 0 365
-30 0 -30 0 0 -395z"/>
<path d="M2942 774 c-29 -14 -68 -45 -87 -68 -64 -78 -65 -85 -65 -406 l0
-290 25 0 25 0 0 150 0 150 225 0 225 0 0 -150 0 -150 30 0 30 0 0 273 c0 333
-4 352 -89 438 -65 65 -101 79 -202 79 -50 0 -77 -6 -117 -26z m224 -47 c43
-22 84 -66 105 -112 14 -30 19 -65 19 -142 l0 -103 -226 0 -227 0 5 108 c6
149 37 204 138 252 52 24 136 23 186 -3z"/>
<path d="M4090 405 l0 -395 235 0 235 0 0 30 0 30 -210 0 -210 0 0 150 0 150
183 2 182 3 3 28 3 27 -185 0 -186 0 0 155 0 155 210 0 210 0 0 30 0 30 -235
0 -235 0 0 -395z"/>
<path d="M4660 405 l0 -395 155 0 c184 0 235 14 303 83 69 71 82 119 82 310
-1 214 -22 271 -125 342 -61 42 -131 55 -297 55 l-118 0 0 -395z m313 326 c60
-14 113 -57 142 -114 24 -48 25 -60 25 -214 0 -178 -8 -213 -58 -266 -54 -57
-95 -70 -234 -75 l-128 -4 0 341 0 341 108 0 c59 0 124 -4 145 -9z"/>
</g>
</svg>
